<?xml version="1.0" encoding="utf-8"?>
<!-- Generator: Adobe Illustrator 24.0.0, SVG Export Plug-In . SVG Version: 6.00 Build 0)  -->
<svg version="1.1" xmlns="http://www.w3.org/2000/svg" xmlns:xlink="http://www.w3.org/1999/xlink" x="0px" y="0px"
	 viewBox="0 0 2500 2500" style="enable-background:new 0 0 2500 2500;" xml:space="preserve">
<style type="text/css">
	.st0{display:none;}
	.st1{display:inline;}
	.st2{fill:#010202;}
</style>
<g id="Capa_1" class="st0">
	
		<image style="display:inline;overflow:visible;" width="2500" height="2500" xlink:href="white.png"  transform="matrix(1.1289 0 0 1.1289 -108.8033 -161.1794)">
	</image>
</g>
<g id="Capa_2" class="st0">
	<g id="Capa_3" class="st1">
	</g>
</g>
<g id="Capa_4" class="st0">
	
		<image style="overflow:visible;" width="232" height="233" xlink:href="D0BABBDD.jpg"  transform="matrix(15.5001 0 0 15.5001 -573.9016 -323.4719)">
	</image>
</g>
<g id="Capa_5">
	<path class="st2" d="M1268.6,556.7l239.5-310.7h514.5v1326.7c0,0-258.9,1058.2-1258.8,501.6L958,1831.7
		c0,0,559.8,372.1,757.2-304.2c0-3.2-9.7-977.3-9.7-977.3L1268.6,556.7z"/>
	<path class="st2" d="M1343,1035.6l194.2-252.4c0,0-734.6-294.5-1029,540.4c3.2-3.2-113.3,278.3,139.1,608.4l210.3-265.3
		c0,0-132.7-236.2,6.5-425.5C877.1,1236.3,1000,980.6,1343,1035.6z"/>
</g>
</svg>
